<svg width="212" height="212" viewBox="0 0 212 212" fill="none" xmlns="http://www.w3.org/2000/svg">
<style>
:root { color-scheme: light dark; }
.mark { color: #111111; }
@media (prefers-color-scheme: dark) {
  .mark { color: #ffffff; }
}
</style>
<g class="mark">
<path d="M80.0908 205.541C81.6539 205.541 82.9208 206.77 82.9209 208.285V209.254C82.9209 210.769 81.654 211.998 80.0908 211.998H52.0176C50.4543 211.998 49.1865 210.77 49.1865 209.254V208.285C49.1867 206.77 50.4543 205.541 52.0176 205.541H80.0908Z" fill="currentColor"/>
<path d="M159.981 205.541C161.545 205.541 162.811 206.77 162.812 208.285V209.254C162.812 210.769 161.545 211.998 159.981 211.998H138.102C136.538 211.998 135.271 210.769 135.271 209.254V208.285C135.272 206.77 136.538 205.541 138.102 205.541H159.981Z" fill="currentColor"/>
<path d="M80.0908 194.112C81.6541 194.112 82.9219 195.341 82.9219 196.856V197.825C82.9217 199.341 81.654 200.569 80.0908 200.569H22.8789C21.3157 200.569 20.048 199.341 20.0479 197.825V196.856C20.0479 195.341 21.3156 194.112 22.8789 194.112H80.0908Z" fill="currentColor"/>
<path d="M189.087 194.112C190.65 194.112 191.918 195.341 191.918 196.856V197.825C191.918 199.341 190.65 200.569 189.087 200.569H138.069C136.506 200.569 135.238 199.341 135.238 197.825V196.856C135.238 195.341 136.506 194.112 138.069 194.112H189.087Z" fill="currentColor"/>
<path d="M80.0898 182.716C81.6532 182.716 82.9209 183.944 82.9209 185.46V186.428C82.9209 187.943 81.6532 189.173 80.0898 189.173H12.0215C10.4582 189.173 9.19141 187.943 9.19141 186.428V185.46C9.19141 183.944 10.4582 182.716 12.0215 182.716H80.0898Z" fill="currentColor"/>
<path d="M199.943 182.716C201.507 182.716 202.774 183.944 202.774 185.46V186.428C202.774 187.943 201.507 189.173 199.943 189.173H138.069C136.506 189.173 135.238 187.943 135.238 186.428V185.46C135.238 183.944 136.506 182.716 138.069 182.716H199.943Z" fill="currentColor"/>
<path d="M78.1924 171.29C79.7557 171.29 81.0234 172.519 81.0234 174.034V175.003C81.0233 176.518 79.7556 177.747 78.1924 177.747H5.99414C4.43098 177.747 3.16419 176.518 3.16406 175.003V174.034C3.16406 172.519 4.4309 171.29 5.99414 171.29H78.1924Z" fill="currentColor"/>
<path d="M205.971 171.29C207.534 171.29 208.802 172.519 208.802 174.034V175.003C208.802 176.518 207.534 177.747 205.971 177.747H139.368C137.805 177.747 136.537 176.518 136.537 175.003V174.034C136.537 172.519 137.805 171.29 139.368 171.29H205.971Z" fill="currentColor"/>
<path d="M64.3389 159.86C65.9022 159.86 67.1699 161.09 67.1699 162.605V163.573C67.1699 165.089 65.9022 166.317 64.3389 166.317H3.19727C1.63394 166.317 0.366211 165.089 0.366211 163.573V162.605C0.366211 161.09 1.63394 159.86 3.19727 159.86H64.3389Z" fill="currentColor"/>
<path d="M208.769 159.86C210.332 159.86 211.599 161.09 211.599 162.605V163.573C211.599 165.089 210.332 166.317 208.769 166.317H143.863C142.3 166.317 141.032 165.089 141.032 163.573V162.605C141.032 161.09 142.3 159.86 143.863 159.86H208.769Z" fill="currentColor"/>
<path d="M55.4473 148.461C57.0106 148.461 58.2783 149.689 58.2783 151.205V152.174C58.2782 153.689 57.0105 154.918 55.4473 154.918H2.83105C1.26781 154.918 0.000129843 153.689 0 152.174V151.205C0 149.689 1.26773 148.461 2.83105 148.461H55.4473Z" fill="currentColor"/>
<path d="M209.168 148.461C210.731 148.461 211.999 149.689 211.999 151.205V152.174C211.999 153.689 210.731 154.918 209.168 154.918H147.693C146.13 154.918 144.862 153.689 144.862 152.174V151.205C144.862 149.689 146.13 148.461 147.693 148.461H209.168Z" fill="currentColor"/>
<path d="M48.1211 137.031C49.6843 137.031 50.9512 138.261 50.9512 139.776V140.744C50.9512 142.26 49.6843 143.488 48.1211 143.488H2.83105C1.26773 143.488 0 142.26 0 140.744V139.776C0 138.261 1.26773 137.031 2.83105 137.031H48.1211Z" fill="currentColor"/>
<path d="M209.168 137.031C210.731 137.031 211.999 138.261 211.999 139.776V140.744C211.999 142.26 210.731 143.488 209.168 143.488H149.392C147.828 143.488 146.562 142.26 146.562 140.744V139.776C146.562 138.261 147.828 137.031 149.392 137.031H209.168Z" fill="currentColor"/>
<path d="M40.4951 125.603C42.0582 125.603 43.3251 126.831 43.3252 128.347V129.315C43.3252 130.831 42.0583 132.059 40.4951 132.06H2.83105C1.26773 132.06 0 130.831 0 129.315V128.347C0.00011549 126.831 1.2678 125.603 2.83105 125.603H40.4951Z" fill="currentColor"/>
<path d="M71.2324 125.603C72.7957 125.603 74.0634 126.831 74.0635 128.347V129.315C74.0635 130.831 72.7957 132.06 71.2324 132.06H67.6357C66.0725 132.059 64.8057 130.831 64.8057 129.315V128.347C64.8058 126.831 66.0726 125.603 67.6357 125.603H71.2324Z" fill="currentColor"/>
<path d="M209.168 125.603C210.731 125.603 211.999 126.831 211.999 128.347V129.315C211.999 130.831 210.731 132.06 209.168 132.06H150.557C148.993 132.059 147.727 130.831 147.727 129.315V128.347C147.727 126.831 148.994 125.603 150.557 125.603H209.168Z" fill="currentColor"/>
<path d="M30.4043 114.174C31.9676 114.174 33.2354 115.402 33.2354 116.918V117.887C33.2351 119.402 31.9675 120.631 30.4043 120.631H2.83105C1.26788 120.631 0.000237744 119.402 0 117.887V116.918C0 115.402 1.26773 114.174 2.83105 114.174H30.4043Z" fill="currentColor"/>
<path d="M75.2285 114.174C76.7918 114.174 78.0596 115.402 78.0596 116.918V117.887C78.0593 119.402 76.7917 120.631 75.2285 120.631H56.7793C55.2162 120.631 53.9495 119.402 53.9492 117.887V116.918C53.9492 115.402 55.216 114.174 56.7793 114.174H75.2285Z" fill="currentColor"/>
<path d="M209.168 114.174C210.731 114.174 211.998 115.402 211.998 116.918V117.887C211.998 119.402 210.731 120.631 209.168 120.631H152.722C151.159 120.631 149.891 119.402 149.891 117.887V116.918C149.891 115.402 151.158 114.174 152.722 114.174H209.168Z" fill="currentColor"/>
<path d="M74.6289 102.777C76.1922 102.777 77.46 104.006 77.46 105.521V106.49C77.4598 108.006 76.1921 109.234 74.6289 109.234H2.83105C1.26783 109.234 0.000161204 108.006 0 106.49V105.521C0 104.006 1.26773 102.777 2.83105 102.777H74.6289Z" fill="currentColor"/>
<path d="M209.168 102.777C210.731 102.777 211.998 104.006 211.998 105.521V106.49C211.998 108.006 210.731 109.234 209.168 109.234H156.784C155.221 109.234 153.953 108.006 153.953 106.49V105.521C153.953 104.006 155.221 102.777 156.784 102.777H209.168Z" fill="currentColor"/>
<path d="M72.0986 91.3477C73.6616 91.3479 74.9285 92.5765 74.9287 94.0918V95.0605C74.9287 96.576 73.6617 97.8044 72.0986 97.8047H2.83105C1.26773 97.8047 0 96.5762 0 95.0605V94.0918C0.00023615 92.5764 1.26788 91.3477 2.83105 91.3477H72.0986Z" fill="currentColor"/>
<path d="M95.0762 91.3477C96.6393 91.3477 97.907 92.5764 97.9072 94.0918V95.0605C97.9072 96.5762 96.6395 97.8047 95.0762 97.8047C93.5129 97.8046 92.2461 96.5761 92.2461 95.0605V94.0918C92.2463 92.5764 93.5131 91.3477 95.0762 91.3477Z" fill="currentColor"/>
<path d="M118.188 91.3477C119.751 91.3477 121.018 92.5764 121.019 94.0918V95.0605C121.019 96.5762 119.751 97.8047 118.188 97.8047H117.788C116.225 97.8047 114.957 96.5762 114.957 95.0605V94.0918C114.957 92.5764 116.225 91.3477 117.788 91.3477H118.188Z" fill="currentColor"/>
<path d="M142.331 91.3477C143.894 91.3477 145.162 92.5764 145.162 94.0918V95.0605C145.162 96.5762 143.894 97.8047 142.331 97.8047H138.002C136.439 97.8046 135.172 96.5761 135.172 95.0605V94.0918C135.172 92.5764 136.439 91.3478 138.002 91.3477H142.331Z" fill="currentColor"/>
<path d="M209.168 91.3477C210.731 91.3477 211.999 92.5764 211.999 94.0918V95.0605C211.999 96.5761 210.731 97.8046 209.168 97.8047H161.946C160.383 97.8047 159.115 96.5762 159.115 95.0605V94.0918C159.115 92.5764 160.383 91.3477 161.946 91.3477H209.168Z" fill="currentColor"/>
<path d="M69.334 79.9189C70.8973 79.9189 72.165 81.1475 72.165 82.6631V83.6318C72.165 85.1474 70.8973 86.376 69.334 86.376H2.83105C1.26776 86.376 4.98393e-05 85.1474 0 83.6318V82.6631C5.67498e-05 81.1475 1.26777 79.9189 2.83105 79.9189H69.334Z" fill="currentColor"/>
<path d="M95.5088 79.9189C97.0721 79.9189 98.3398 81.1475 98.3398 82.6631V83.6318C98.3398 85.1474 97.0721 86.376 95.5088 86.376H91.0137C89.4504 86.376 88.1827 85.1474 88.1826 83.6318V82.6631C88.1827 81.1475 89.4504 79.9189 91.0137 79.9189H95.5088Z" fill="currentColor"/>
<path d="M121.285 79.9189C122.848 79.919 124.115 81.1476 124.115 82.6631V83.6318C124.115 85.1474 122.848 86.3759 121.285 86.376H116.989C115.426 86.376 114.158 85.1474 114.158 83.6318V82.6631C114.158 81.1475 115.426 79.9189 116.989 79.9189H121.285Z" fill="currentColor"/>
<path d="M148.359 79.9189C149.923 79.9191 151.189 81.1476 151.189 82.6631V83.6318C151.189 85.1473 149.923 86.3759 148.359 86.376H140.4C138.837 86.376 137.569 85.1474 137.569 83.6318V82.6631C137.569 81.1475 138.837 79.9189 140.4 79.9189H148.359Z" fill="currentColor"/>
<path d="M209.168 79.9189C210.731 79.9189 211.999 81.1475 211.999 82.6631V83.6318C211.999 85.1474 210.731 86.376 209.168 86.376H166.908C165.345 86.3759 164.078 85.1474 164.078 83.6318V82.6631C164.078 81.1476 165.345 79.919 166.908 79.9189H209.168Z" fill="currentColor"/>
<path d="M66.6035 68.5254C68.1667 68.5255 69.4335 69.754 69.4336 71.2695V72.2383C69.4335 73.7538 68.1667 74.9824 66.6035 74.9824H2.83105C1.26776 74.9824 4.98393e-05 73.7539 0 72.2383V71.2695C5.67498e-05 69.754 1.26777 68.5254 2.83105 68.5254H66.6035Z" fill="currentColor"/>
<path d="M95.543 68.5254C97.1061 68.5255 98.373 69.7541 98.373 71.2695V72.2383C98.373 73.7538 97.1061 74.9823 95.543 74.9824H87.3174C85.7541 74.9824 84.4864 73.7539 84.4863 72.2383V71.2695C84.4864 69.754 85.7541 68.5254 87.3174 68.5254H95.543Z" fill="currentColor"/>
<path d="M124.115 68.5254C125.679 68.5254 126.946 69.754 126.946 71.2695V72.2383C126.946 73.7538 125.679 74.9824 124.115 74.9824H116.423C114.86 74.9824 113.592 73.7539 113.592 72.2383V71.2695C113.592 69.754 114.86 68.5254 116.423 68.5254H124.115Z" fill="currentColor"/>
<path d="M154.42 68.5254C155.983 68.5254 157.251 69.754 157.251 71.2695V72.2383C157.251 73.7539 155.983 74.9824 154.42 74.9824H143.197C141.634 74.9824 140.366 73.7538 140.366 72.2383V71.2695C140.366 69.754 141.634 68.5254 143.197 68.5254H154.42Z" fill="currentColor"/>
<path d="M209.168 68.5254C210.731 68.5254 211.999 69.754 211.999 71.2695V72.2383C211.999 73.7539 210.731 74.9824 209.168 74.9824H169.839C168.276 74.9824 167.008 73.7539 167.008 72.2383V71.2695C167.008 69.754 168.276 68.5254 169.839 68.5254H209.168Z" fill="currentColor"/>
<path d="M63.8389 57.0967C65.4022 57.0967 66.6699 58.3252 66.6699 59.8408V60.8086C66.6699 62.3242 65.4022 63.5537 63.8389 63.5537H2.83105C1.26773 63.5537 0 62.3242 0 60.8086V59.8408C0 58.3252 1.26773 57.0967 2.83105 57.0967H63.8389Z" fill="currentColor"/>
<path d="M95.5762 57.0967C97.1394 57.0968 98.4062 58.3253 98.4062 59.8408V60.8086C98.4062 62.3242 97.1394 63.5536 95.5762 63.5537H83.6543C82.091 63.5537 80.8232 62.3242 80.8232 60.8086V59.8408C80.8232 58.3252 82.091 57.0967 83.6543 57.0967H95.5762Z" fill="currentColor"/>
<path d="M126.713 57.0967C128.276 57.0967 129.544 58.3252 129.544 59.8408V60.8086C129.544 62.3242 128.276 63.5537 126.713 63.5537H115.857C114.294 63.5537 113.026 62.3242 113.026 60.8086V59.8408C113.026 58.3252 114.294 57.0967 115.857 57.0967H126.713Z" fill="currentColor"/>
<path d="M209.168 57.0967C210.731 57.0967 211.999 58.3252 211.999 59.8408V60.8086C211.999 62.3242 210.731 63.5537 209.168 63.5537H145.429C143.865 63.5537 142.598 62.3242 142.598 60.8086V59.8408C142.598 58.3252 143.865 57.0967 145.429 57.0967H209.168Z" fill="currentColor"/>
<path d="M62.9736 45.668C64.5369 45.668 65.8037 46.8965 65.8037 48.4121V49.3809C65.8035 50.8962 64.5368 52.1249 62.9736 52.125H3.19727C1.63408 52.125 0.366435 50.8963 0.366211 49.3809V48.4121C0.366211 46.8965 1.63394 45.668 3.19727 45.668H62.9736Z" fill="currentColor"/>
<path d="M95.6094 45.668C97.1726 45.6681 98.4395 46.8966 98.4395 48.4121V49.3809C98.4392 50.8962 97.1725 52.1249 95.6094 52.125H79.6914C78.1282 52.125 76.8606 50.8963 76.8604 49.3809V48.4121C76.8604 46.8965 78.1281 45.668 79.6914 45.668H95.6094Z" fill="currentColor"/>
<path d="M129.244 45.668C130.807 45.6681 132.074 46.8966 132.074 48.4121V49.3809C132.074 50.8962 130.807 52.1249 129.244 52.125H115.257C113.694 52.1248 112.427 50.8961 112.427 49.3809V48.4121C112.427 46.8966 113.694 45.6682 115.257 45.668H129.244Z" fill="currentColor"/>
<path d="M208.769 45.668C210.332 45.6682 211.599 46.8966 211.599 48.4121V49.3809C211.598 50.8962 210.332 52.1248 208.769 52.125H146.128C144.565 52.125 143.297 50.8963 143.297 49.3809V48.4121C143.297 46.8965 144.565 45.668 146.128 45.668H208.769Z" fill="currentColor"/>
<path d="M96.1416 34.2676C97.7049 34.2676 98.9727 35.4961 98.9727 37.0117V37.9805C98.9724 39.4959 97.7048 40.7246 96.1416 40.7246H5.99414C4.43107 40.7245 3.16433 39.4958 3.16406 37.9805V37.0117C3.16406 35.4962 4.4309 34.2677 5.99414 34.2676H96.1416Z" fill="currentColor"/>
<path d="M205.971 34.2676C207.534 34.2676 208.802 35.4961 208.802 37.0117V37.9805C208.801 39.4959 207.534 40.7246 205.971 40.7246H114.392C112.828 40.7246 111.561 39.4959 111.561 37.9805V37.0117C111.561 35.4961 112.828 34.2676 114.392 34.2676H205.971Z" fill="currentColor"/>
<path d="M199.956 22.8389C201.519 22.8389 202.787 24.0674 202.787 25.583V26.5518C202.787 28.0672 201.519 29.2959 199.956 29.2959H12.0215C10.4584 29.2958 9.19167 28.0671 9.19141 26.5518V25.583C9.19141 24.0674 10.4582 22.8389 12.0215 22.8389H199.956Z" fill="currentColor"/>
<path d="M189.087 11.4189C190.65 11.4189 191.918 12.6476 191.918 14.1631V15.1318C191.918 16.6474 190.65 17.876 189.087 17.876H22.8916C21.3283 17.876 20.0605 16.6474 20.0605 15.1318V14.1631C20.0607 12.6476 21.3284 11.419 22.8916 11.4189H189.087Z" fill="currentColor"/>
<path d="M159.975 0C161.538 1.39922e-05 162.806 1.22854 162.806 2.74414V3.71289C162.805 5.22832 161.538 6.45702 159.975 6.45703H52.0039C50.4407 6.45703 49.1731 5.22833 49.1729 3.71289V2.74414C49.1729 1.22853 50.4406 0 52.0039 0H159.975Z" fill="currentColor"/>
</g>
</svg>
