<?xml version="1.0" encoding="UTF-8"?>
<svg id="Layer_2" data-name="Layer 2" xmlns="http://www.w3.org/2000/svg" viewBox="0 0 114.544 114.543">
  <defs>
    <style>
      .cls-1 {
        fill: #fff;
      }
    </style>
  </defs>
  <g id="Layer_1-2" data-name="Layer 1">
    <g>
      <path class="cls-1" d="M86.969,110.301h-12.727c-1.172,0-2.121.95-2.121,2.121s.95,2.121,2.121,2.121h12.727c1.172,0,2.121-.95,2.121-2.121s-.95-2.121-2.121-2.121Z"/>
      <path class="cls-1" d="M40.302,110.301h-12.727c-1.171,0-2.121.95-2.121,2.121s.95,2.121,2.121,2.121h12.727c1.171,0,2.121-.95,2.121-2.121s-.95-2.121-2.121-2.121Z"/>
      <path class="cls-1" d="M42.423,103.936c0-1.172-.95-2.121-2.121-2.121H10.605c-1.172,0-2.121.95-2.121,2.121s.95,2.121,2.121,2.121h29.696c1.172,0,2.121-.95,2.121-2.121Z"/>
      <path class="cls-1" d="M103.938,101.815h-29.696c-1.172,0-2.121.95-2.121,2.121s.95,2.121,2.121,2.121h29.696c1.172,0,2.121-.95,2.121-2.121s-.95-2.121-2.121-2.121Z"/>
      <path class="cls-1" d="M109.593,93.333h-32.525c-1.172,0-2.121.95-2.121,2.121s.95,2.121,2.121,2.121h32.525c1.171,0,2.121-.95,2.121-2.121s-.95-2.121-2.121-2.121Z"/>
      <path class="cls-1" d="M38.18,95.454c0-1.172-.95-2.121-2.121-2.121H4.949c-1.172,0-2.121.95-2.121,2.121s.95,2.121,2.121,2.121h31.111c1.171,0,2.121-.95,2.121-2.121Z"/>
      <path class="cls-1" d="M112.422,84.847h-32.525c-1.171,0-2.121.95-2.121,2.121s.95,2.121,2.121,2.121h32.525c1.171,0,2.121-.95,2.121-2.121s-.95-2.121-2.121-2.121Z"/>
      <path class="cls-1" d="M29.696,86.968c0-1.172-.95-2.121-2.121-2.121H2.121c-1.172,0-2.121.95-2.121,2.121s.95,2.121,2.121,2.121h25.454c1.171,0,2.121-.95,2.121-2.121Z"/>
      <path class="cls-1" d="M112.422,76.361h-31.111c-1.171,0-2.121.95-2.121,2.121s.95,2.121,2.121,2.121h31.111c1.172,0,2.121-.95,2.121-2.121s-.95-2.121-2.121-2.121Z"/>
      <path class="cls-1" d="M2.121,80.603h16.969c1.171,0,2.121-.95,2.121-2.121s-.95-2.121-2.121-2.121H2.121c-1.172,0-2.121.95-2.121,2.121s.95,2.121,2.121,2.121Z"/>
      <path class="cls-1" d="M82.725,72.118h29.696c1.172,0,2.121-.95,2.121-2.121s-.95-2.121-2.121-2.121h-29.696c-1.171,0-2.121.95-2.121,2.121s.95,2.121,2.121,2.121Z"/>
      <path class="cls-1" d="M2.121,72.118h11.313c1.172,0,2.121-.95,2.121-2.121s-.95-2.121-2.121-2.121H2.121c-1.172,0-2.121.95-2.121,2.121s.95,2.121,2.121,2.121Z"/>
      <path class="cls-1" d="M37.474,67.876h-5.656c-1.172,0-2.121.95-2.121,2.121s.95,2.121,2.121,2.121h5.656c1.172,0,2.121-.95,2.121-2.121s-.95-2.121-2.121-2.121Z"/>
      <path class="cls-1" d="M112.423,59.393h-26.868c-1.172,0-2.121.95-2.121,2.121s.95,2.121,2.121,2.121h26.868c1.172,0,2.121-.95,2.121-2.121s-.95-2.121-2.121-2.121Z"/>
      <path class="cls-1" d="M2.121,63.636h35.353c1.171,0,2.121-.95,2.121-2.121s-.95-2.121-2.121-2.121H2.121c-1.172,0-2.121.95-2.121,2.121s.95,2.121,2.121,2.121Z"/>
      <path class="cls-1" d="M50.201,50.907h-1.414c-1.172,0-2.121.95-2.121,2.121s.95,2.121,2.121,2.121h1.414c1.172,0,2.121-.95,2.121-2.121s-.95-2.121-2.121-2.121Z"/>
      <path class="cls-1" d="M62.928,50.907c-1.172,0-2.121.95-2.121,2.121s.95,2.121,2.121,2.121,2.121-.95,2.121-2.121-.95-2.121-2.121-2.121Z"/>
      <path class="cls-1" d="M74.241,50.907c-1.172,0-2.121.95-2.121,2.121s.95,2.121,2.121,2.121h1.414c1.172,0,2.121-.95,2.121-2.121s-.95-2.121-2.121-2.121h-1.414Z"/>
      <path class="cls-1" d="M112.422,50.907h-24.04c-1.172,0-2.121.95-2.121,2.121s.95,2.121,2.121,2.121h24.04c1.171,0,2.121-.95,2.121-2.121s-.95-2.121-2.121-2.121Z"/>
      <path class="cls-1" d="M2.121,55.15h33.939c1.172,0,2.121-.95,2.121-2.121s-.95-2.121-2.121-2.121H2.121c-1.172,0-2.121.95-2.121,2.121s.95,2.121,2.121,2.121Z"/>
      <path class="cls-1" d="M112.423,42.425h-21.212c-1.172,0-2.121.95-2.121,2.121s.95,2.121,2.121,2.121h21.212c1.172,0,2.121-.95,2.121-2.121s-.95-2.121-2.121-2.121Z"/>
      <path class="cls-1" d="M82.019,44.547c0-1.172-.95-2.121-2.121-2.121h-4.242c-1.171,0-2.121.95-2.121,2.121s.95,2.121,2.121,2.121h4.242c1.172,0,2.121-.95,2.121-2.121Z"/>
      <path class="cls-1" d="M64.343,42.425h-2.828c-1.172,0-2.121.95-2.121,2.121s.95,2.121,2.121,2.121h2.828c1.171,0,2.121-.95,2.121-2.121s-.95-2.121-2.121-2.121Z"/>
      <path class="cls-1" d="M48.788,46.668c1.172,0,2.121-.95,2.121-2.121s-.95-2.121-2.121-2.121h-1.414c-1.172,0-2.121.95-2.121,2.121s.95,2.121,2.121,2.121h1.414Z"/>
      <path class="cls-1" d="M2.121,46.668h31.111c1.172,0,2.121-.95,2.121-2.121s-.95-2.121-2.121-2.121H2.121c-1.172,0-2.121.95-2.121,2.121s.95,2.121,2.121,2.121Z"/>
      <path class="cls-1" d="M2.121,38.182h29.696c1.172,0,2.121-.95,2.121-2.121s-.95-2.121-2.121-2.121H2.121c-1.172,0-2.121.95-2.121,2.121s.95,2.121,2.121,2.121Z"/>
      <path class="cls-1" d="M112.422,33.939h-35.353c-1.172,0-2.121.95-2.121,2.121s.95,2.121,2.121,2.121h35.353c1.172,0,2.121-.95,2.121-2.121s-.95-2.121-2.121-2.121Z"/>
      <path class="cls-1" d="M50.908,36.061c0-1.171-.95-2.121-2.121-2.121h-4.242c-1.172,0-2.121.95-2.121,2.121s.95,2.121,2.121,2.121h4.242c1.172,0,2.121-.95,2.121-2.121Z"/>
      <path class="cls-1" d="M65.757,33.939h-4.242c-1.172,0-2.121.95-2.121,2.121s.95,2.121,2.121,2.121h4.242c1.171,0,2.121-.95,2.121-2.121s-.95-2.121-2.121-2.121Z"/>
      <path class="cls-1" d="M2.121,29.697h29.696c1.172,0,2.121-.95,2.121-2.121s-.95-2.121-2.121-2.121H2.121c-1.172,0-2.121.95-2.121,2.121s.95,2.121,2.121,2.121Z"/>
      <path class="cls-1" d="M51.615,27.575c0-1.171-.95-2.121-2.121-2.121h-7.071c-1.172,0-2.121.95-2.121,2.121s.95,2.121,2.121,2.121h7.071c1.172,0,2.121-.95,2.121-2.121Z"/>
      <path class="cls-1" d="M67.171,25.454h-5.656c-1.172,0-2.121.95-2.121,2.121s.95,2.121,2.121,2.121h5.656c1.172,0,2.121-.95,2.121-2.121s-.95-2.121-2.121-2.121Z"/>
      <path class="cls-1" d="M76.362,27.575c0,1.172.95,2.121,2.121,2.121h33.939c1.172,0,2.121-.95,2.121-2.121s-.95-2.121-2.121-2.121h-33.939c-1.172,0-2.121.95-2.121,2.121Z"/>
      <path class="cls-1" d="M59.393,19.089c0,1.172.95,2.121,2.121,2.121h48.08c1.171,0,2.121-.95,2.121-2.121s-.95-2.121-2.121-2.121h-48.08c-1.172,0-2.121.95-2.121,2.121Z"/>
      <path class="cls-1" d="M4.95,21.21h44.898c1.171,0,2.121-.95,2.121-2.121s-.95-2.121-2.121-2.121H4.95c-1.172,0-2.121.95-2.121,2.121s.95,2.121,2.121,2.121Z"/>
      <path class="cls-1" d="M10.605,12.724h93.332c1.172,0,2.121-.95,2.121-2.121s-.95-2.121-2.121-2.121H10.605c-1.172,0-2.121.95-2.121,2.121s.95,2.121,2.121,2.121Z"/>
      <path class="cls-1" d="M27.575,4.242h59.393c1.172,0,2.121-.95,2.121-2.121s-.95-2.121-2.121-2.121H27.575c-1.171,0-2.121.95-2.121,2.121s.95,2.121,2.121,2.121Z"/>
    </g>
  </g>
</svg>